<svg xmlns="http://www.w3.org/2000/svg" width="220" height="56" viewBox="0 0 440 112">
  <defs><linearGradient id="lavgold" x1="0" x2="1" y1="0" y2="1"><stop offset="0%" stop-color="#E9E3FF"/><stop offset="100%" stop-color="#F6D98B"/></linearGradient></defs>
  <g transform="translate(8,10)">
    <g transform="translate(0,6)">
      <path d="M40 28c10-18 30-18 40 0-10 6-10 18-20 18s-10-12-20-18z" fill="#E9E3FF" stroke="#F6D98B" stroke-width="2" />
      <circle cx="60" cy="32" r="6" fill="#F6D98B" />
      <path d="M60 10c0 10 8 16 8 24-6-2-10-8-12-14-2 6-6 12-12 14 0-8 8-14 8-24h8z" fill="#D9D1FF" opacity="0.9"/>
    </g>
    <text x="92" y="42" font-family="Georgia, serif" font-size="36" fill="#6b5ea6">Beauty by Briers</text>
  </g>
</svg>